<svg xmlns="http://www.w3.org/2000/svg" version="1.1" xmlns:xlink="http://www.w3.org/1999/xlink" xmlns:svgjs="http://svgjs.dev/svgjs" width="128" height="128" viewBox="0 0 128 128"><g transform="matrix(0.5508021390374331,0,0,0.5508021390374331,28.575001055004805,12.760752631578946)"><svg viewBox="0 0 65 95" data-background-color="#ffffff" preserveAspectRatio="xMidYMid meet" height="187" width="128" xmlns="http://www.w3.org/2000/svg" xmlns:xlink="http://www.w3.org/1999/xlink"><g id="tight-bounds" transform="matrix(1,0,0,1,0.16010787139082083,-0.24049999999999727)"><svg viewBox="0 0 64.67978425721836 95.481" height="95.481" width="64.67978425721836"><g><svg viewBox="0 0 64.67978425721836 95.481" height="95.481" width="64.67978425721836"><g><svg viewBox="0 0 64.67978425721836 95.481" height="95.481" width="64.67978425721836"><g id="textblocktransform"><svg viewBox="0 0 64.67978425721836 95.481" height="95.481" width="64.67978425721836" id="textblock"><g><svg viewBox="0 0 64.67978425721836 95.481" height="95.481" width="64.67978425721836"><g><svg viewBox="0 0 64.67978425721836 95.481" height="95.481" width="64.67978425721836"><g><svg xmlns="http://www.w3.org/2000/svg" xmlns:xlink="http://www.w3.org/1999/xlink" version="1.1" x="0" y="0" viewBox="16.129 0 67.74100004945315 100" enable-background="new 0 0 100 100" xml:space="preserve" height="95.481" width="64.67978425721836" class="icon-icon-0" data-fill-palette-color="accent" id="icon-0"><path d="M50 0C31.294 0 16.129 15.165 16.129 33.87c0 0.401 0.012 0.809 0.03 1.221 0.127 3.558 0.798 6.975 1.939 10.172C25.324 69.015 50 100 50 100s24.673-30.982 31.9-54.734c1.143-3.197 1.813-6.617 1.939-10.175 0.02-0.412 0.031-0.819 0.031-1.221C83.871 15.165 68.706 0 50 0zM50 50.459c-9.161 0-16.589-7.428-16.589-16.589 0-9.16 7.428-16.588 16.589-16.588 9.162 0 16.589 7.428 16.589 16.588C66.589 43.031 59.162 50.459 50 50.459z" fill="#000000" data-fill-palette-color="accent"></path></svg></g></svg></g></svg></g></svg></g></svg></g></svg></g><defs></defs></svg><rect width="64.67978425721836" height="95.481" fill="none" stroke="none" visibility="hidden"></rect></g></svg></g></svg>